{
  "accessors": [
    {
      "bufferView": 2,
      "componentType": 5126,
      "count": 64861,
      "max": [
        22.632604598999023,
        5.92900276184082,
        191.67189025878906
      ],
      "min": [
        -22.55452537536621,
        -40.611106872558594,
        42.37743377685547
      ],
      "type": "VEC3"
    },
    {
      "bufferView": 2,
      "byteOffset": 778332,
      "componentType": 5126,
      "count": 64861,
      "max": [
        0.9999949932098389,
        0.9999985098838806,
        0.9999977946281433
      ],
      "min": [
        -0.9999987483024597,
        -0.9999862909317017,
        -0.9999803900718689
      ],
      "type": "VEC3"
    },
    {
      "bufferView": 1,
      "componentType": 5126,
      "count": 64861,
      "max": [
        0.9951099753379822,
        0.955590009689331
      ],
      "min": [
        0.004879999905824661,
        0.004879999905824661
      ],
      "type": "VEC2"
    },
    {
      "bufferView": 0,
      "componentType": 5125,
      "count": 359988,
      "type": "SCALAR"
    }
  ],
  "asset": {
    "extras": {
      "author": "MarproZ (https://sketchfab.com/MarproZ)",
      "license": "SKETCHFAB Editorial (https://sketchfab.com/licenses)",
      "source": "https://sketchfab.com/3d-models/pickle-rick-rick-and-morty-99ab8570705f4e0db247138adb4ff32f",
      "title": "Pickle Rick - Rick and Morty"
    },
    "generator": "Sketchfab-12.67.0",
    "version": "2.0"
  },
  "bufferViews": [
    {
      "buffer": 0,
      "byteLength": 1439952,
      "name": "floatBufferViews",
      "target": 34963
    },
    {
      "buffer": 0,
      "byteLength": 518888,
      "byteOffset": 1439952,
      "byteStride": 8,
      "name": "floatBufferViews",
      "target": 34962
    },
    {
      "buffer": 0,
      "byteLength": 1556664,
      "byteOffset": 1958840,
      "byteStride": 12,
      "name": "floatBufferViews",
      "target": 34962
    }
  ],
  "buffers": [
    {
      "byteLength": 3515504,
      "uri": "scene.bin"
    }
  ],
  "images": [
    {
      "uri": "textures/material_0_baseColor.png"
    }
  ],
  "materials": [
    {
      "name": "material_0",
      "pbrMetallicRoughness": {
        "baseColorTexture": {
          "index": 0
        },
        "metallicFactor": 0.0,
        "roughnessFactor": 0.6016666759144176
      }
    }
  ],
  "meshes": [
    {
      "name": "Object_0",
      "primitives": [
        {
          "attributes": {
            "NORMAL": 1,
            "POSITION": 0,
            "TEXCOORD_0": 2
          },
          "indices": 3,
          "material": 0,
          "mode": 4
        }
      ]
    }
  ],
  "nodes": [
    {
      "children": [
        1
      ],
      "matrix": [
        1.0,
        0.0,
        0.0,
        0.0,
        0.0,
        2.220446049250313e-16,
        -1.0,
        0.0,
        0.0,
        1.0,
        2.220446049250313e-16,
        0.0,
        0.0,
        0.0,
        0.0,
        1.0
      ],
      "name": "Sketchfab_model"
    },
    {
      "children": [
        2
      ],
      "name": "PickleRick_OBJ.OBJ.cleaner.materialmerger.gles"
    },
    {
      "mesh": 0,
      "name": "Object_2"
    }
  ],
  "samplers": [
    {
      "magFilter": 9729,
      "minFilter": 9987,
      "wrapS": 10497,
      "wrapT": 10497
    }
  ],
  "scene": 0,
  "scenes": [
    {
      "name": "Sketchfab_Scene",
      "nodes": [
        0
      ]
    }
  ],
  "textures": [
    {
      "sampler": 0,
      "source": 0
    }
  ]
}
